<?xml version="1.0" encoding="UTF-8" standalone="no"?>
<!-- Created with Inkscape (http://www.inkscape.org/) -->

<svg
   width="274cm"
   height="120cm"
   viewBox="0 0 2740 1200"
   version="1.1"
   id="svg8"
   xml:space="preserve"
   sodipodi:docname="EEI_circuit_2024.svg"
   inkscape:version="1.3.2 (091e20e, 2023-11-25)"
   xmlns:inkscape="http://www.inkscape.org/namespaces/inkscape"
   xmlns:sodipodi="http://sodipodi.sourceforge.net/DTD/sodipodi-0.dtd"
   xmlns="http://www.w3.org/2000/svg"
   xmlns:svg="http://www.w3.org/2000/svg"
   xmlns:rdf="http://www.w3.org/1999/02/22-rdf-syntax-ns#"
   xmlns:cc="http://creativecommons.org/ns#"
   xmlns:dc="http://purl.org/dc/elements/1.1/"><sodipodi:namedview
     id="namedview1"
     pagecolor="#ffffff"
     bordercolor="#000000"
     borderopacity="0.25"
     inkscape:showpageshadow="2"
     inkscape:pageopacity="0.0"
     inkscape:pagecheckerboard="0"
     inkscape:deskcolor="#d1d1d1"
     inkscape:document-units="cm"
     inkscape:zoom="0.16059582"
     inkscape:cx="7540.6694"
     inkscape:cy="2244.7658"
     inkscape:window-width="2416"
     inkscape:window-height="1212"
     inkscape:window-x="0"
     inkscape:window-y="25"
     inkscape:window-maximized="0"
     inkscape:current-layer="svg8" /><defs
     id="defs2" /><metadata
     id="metadata5"><rdf:RDF><cc:Work
         rdf:about=""><dc:format>image/svg+xml</dc:format><dc:type
           rdf:resource="http://purl.org/dc/dcmitype/StillImage" /></cc:Work></rdf:RDF></metadata><rect
     style="fill:#000000;fill-opacity:1;stroke:none;stroke-width:2.01587;stroke-opacity:1"
     id="fondo"
     width="2740"
     height="1200"
     x="0"
     y="0" /><circle
     r="490"
     cy="600"
     cx="600"
     id="circulo"
     style="fill:none;fill-opacity:0.436893;fill-rule:nonzero;stroke:#ffffff;stroke-width:20;stroke-linecap:round;stroke-linejoin:round;stroke-miterlimit:4;stroke-dasharray:none;stroke-opacity:1" /><g
     id="circuito"
     transform="matrix(1.0096938,0,0,1.0039276,-135.94166,-27.796011)"
     style="fill:none;stroke:#ffffff;stroke-width:19.8648;stroke-dasharray:none;stroke-opacity:1"><path
       id="pista"
       d="m 1382.568,260.58345 c 0,-71.86968 65.6628,-123.3545 115.5997,-123.3545 h 378.1232 c 161.3949,0 161.3098,195.94838 0,195.94838 h -151.4947 c -127.1409,0 -125.5921,194.35612 0,194.35613 h 151.4947 c 159.2274,0 159.2274,242.67471 0,242.75331 h -151.4947 c -127.7901,0 -126.1703,196.23915 0,196.23915 h 539.8206 c 72.6747,0 112.2823,-44.92069 112.3266,-105.81588 V 417.52659 c 0,-27.89795 -18.2858,-85.6581 -112.3266,-85.6581 -123.9783,0 -125.3818,-194.63956 0,-194.63954 l 362.4669,5e-5 c 149.6983,2e-5 149.6983,195.24875 10e-5,196.23601 -43.2646,0.28533 -100.1125,33.38315 -100.1125,84.06158 v 443.18345 c 0,105.81588 79.1998,105.81588 122.8195,105.81588 115.1455,0 118.0387,146.92498 0.9872,146.92498 H 1501.0784 c -66.345,0 -118.5104,-64.9684 -118.5104,-119.0584 V 793.70135 c 0,-92.02011 75.326,-66.54802 75.326,-145.62014 0,-79.07212 -75.326,-46.21073 -75.326,-142.40959 z"
       style="fill:none;stroke:#ffffff;stroke-width:19.8648;stroke-dasharray:none;stroke-opacity:1" /><path
       style="fill:none;fill-opacity:1;stroke:#ffffff;stroke-width:19.8648;stroke-dasharray:none;stroke-opacity:1"
       d="m 1784.4809,1017.8845 v 50"
       id="meta" /></g></svg>
