<?xml version="1.0" encoding="UTF-8" standalone="no"?>
<!-- Created with Inkscape (http://www.inkscape.org/) -->

<svg
   width="250cm"
   height="125cm"
   viewBox="0 0 2500 1250"
   version="1.1"
   id="svg8"
   inkscape:version="1.3-beta (cedbd6c, 2023-05-28)"
   sodipodi:docname="Rt_circuit.svg"
   xmlns:inkscape="http://www.inkscape.org/namespaces/inkscape"
   xmlns:sodipodi="http://sodipodi.sourceforge.net/DTD/sodipodi-0.dtd"
   xmlns="http://www.w3.org/2000/svg"
   xmlns:svg="http://www.w3.org/2000/svg"
   xmlns:rdf="http://www.w3.org/1999/02/22-rdf-syntax-ns#"
   xmlns:cc="http://creativecommons.org/ns#"
   xmlns:dc="http://purl.org/dc/elements/1.1/">
  <defs
     id="defs2">
    <clipPath
       clipPathUnits="userSpaceOnUse"
       id="clipPath18">
      <path
         d="M 0,595.276 H 841.89 V 0 H 0 Z"
         id="path16" />
    </clipPath>
  </defs>
  <sodipodi:namedview
     id="base"
     pagecolor="#ffffff"
     bordercolor="#666666"
     borderopacity="1.0"
     inkscape:pageopacity="0.0"
     inkscape:pageshadow="2"
     inkscape:zoom="0.070815008"
     inkscape:cx="5669.7021"
     inkscape:cy="2506.5308"
     inkscape:document-units="mm"
     inkscape:current-layer="svg8"
     showgrid="false"
     showguides="true"
     inkscape:guide-bbox="true"
     fit-margin-top="0"
     fit-margin-left="0"
     fit-margin-right="0"
     fit-margin-bottom="0"
     units="cm"
     inkscape:showpageshadow="0"
     inkscape:pagecheckerboard="1"
     inkscape:deskcolor="#d1d1d1"
     inkscape:window-width="1352"
     inkscape:window-height="815"
     inkscape:window-x="0"
     inkscape:window-y="35"
     inkscape:window-maximized="1">
    <sodipodi:guide
       position="1489.9348,608.54164"
       orientation="0,1"
       id="guide97"
       inkscape:locked="false" />
    <sodipodi:guide
       position="1997.1715,1110.8389"
       orientation="1,0"
       id="guide188"
       inkscape:locked="false" />
    <sodipodi:guide
       position="1643.7239,1114.5572"
       orientation="1,0"
       id="guide185"
       inkscape:locked="false" />
  </sodipodi:namedview>
  <metadata
     id="metadata5">
    <rdf:RDF>
      <cc:Work
         rdf:about="">
        <dc:format>image/svg+xml</dc:format>
        <dc:type
           rdf:resource="http://purl.org/dc/dcmitype/StillImage" />
      </cc:Work>
    </rdf:RDF>
  </metadata>
  <g
     id="g1"
     inkscape:label="circuit">
    <ellipse
       style="fill:none;fill-opacity:0.436893;fill-rule:nonzero;stroke:#000000;stroke-width:20;stroke-linecap:round;stroke-linejoin:round;stroke-miterlimit:4;stroke-dasharray:none;stroke-opacity:1"
       id="path393"
       cx="639.99994"
       cy="625"
       rx="490"
       ry="489.99997" />
    <path
       sodipodi:nodetypes="cssssszsssszssssccc"
       inkscape:connector-curvature="0"
       id="path1204"
       d="m 1300.2262,241.9606 c 0,-47.12632 49.7736,-105.46869 99.6147,-105.72416 l 240.312,-1.23177 c 356.4803,-1.82721 356.4803,507.07629 3.3591,507.02864 -63.0645,-0.009 -76.189,45.49553 -74.2251,69.11211 2.1031,25.28835 10.0437,46.73114 74.4057,86.74518 92.6895,57.62528 224.7897,151.85405 291.3675,151.85405 66.578,0 105.233,-42.69987 105.2771,-103.51524 0.02,-20.60697 0.05,-601.12287 0.05,-601.12287 0,-73.96007 57.167,-108.43362 115.9096,-108.81484 59.2873,-0.38472 119.7536,34.00854 120.3074,108.1254 0.9643,129.005 112.2779,65.28418 112.5599,169.73395 0.2828,104.44968 -111.6793,57.1766 -111.8621,171.75265 -0.2478,155.13656 0.8653,423.3622 0.8653,423.3622 0.114,55.2031 -48.1018,105.8716 -115.661,105.734 l -771.5845,-1.5718 c -61.2813,-0.1258 -90.4042,-56.9938 -90.3699,-107.0708 0,0 -2.8937,-463.32694 -0.3232,-764.39781 z"
       style="fill:none;fill-rule:evenodd;stroke:#000000;stroke-width:20;stroke-linecap:butt;stroke-linejoin:miter;stroke-miterlimit:4;stroke-dasharray:none;stroke-opacity:1" />
  </g>
  <g
     id="g286"
     inkscape:label="ROBOteach"
     transform="translate(0,0.36544)">
    <g
       id="g14"
       inkscape:label="Logo ROBOteach"
       transform="matrix(0.75396544,0,0,0.75396544,894.11634,1102.8369)">
      <g
         id="g12"
         style="fill:#5a5a5a;fill-opacity:1"
         inkscape:label="text">
        <path
           d="m 124.60499,151.14838 h -8.15145 v 6.66585 h 9.46912 v 2.02818 h -11.94944 v -18.80906 h 11.82026 v 2.04109 h -9.33994 v 6.04577 h 8.15145 z"
           style="font-size:26.4567px;line-height:2;font-family:Roboto;-inkscape-font-specification:Roboto;text-align:center;text-anchor:middle;fill:#5a5a5a;fill-opacity:1;stroke-width:6.04724;stroke-linecap:round;stroke-linejoin:round;paint-order:markers fill stroke"
           id="path14135" />
        <path
           d="m 127.79582,152.73734 q 0,-3.21666 1.52436,-5.16733 1.52436,-1.96358 3.99176,-1.96358 2.45447,0 3.88841,1.67938 v -7.28593 h 2.38988 v 19.84253 h -2.19611 l -0.11626,-1.49853 q -1.43394,1.75689 -3.99176,1.75689 -2.42864,0 -3.96592,-1.98942 -1.52436,-1.98942 -1.52436,-5.19316 z m 2.38988,0.27128 q 0,2.37697 0.9818,3.72047 0.98179,1.34351 2.71284,1.34351 2.27362,0 3.32001,-2.04109 v -6.4204 q -1.07222,-1.97651 -3.29417,-1.97651 -1.75689,0 -2.73868,1.35643 -0.9818,1.35642 -0.9818,4.01759 z"
           style="font-size:26.4567px;line-height:2;font-family:Roboto;-inkscape-font-specification:Roboto;text-align:center;text-anchor:middle;fill:#5a5a5a;fill-opacity:1;stroke-width:6.04724;stroke-linecap:round;stroke-linejoin:round;paint-order:markers fill stroke"
           id="path14137" />
        <path
           d="m 151.94014,158.46015 q -1.39518,1.64062 -4.09511,1.64062 -2.23486,0 -3.41043,-1.29183 -1.16265,-1.30475 -1.17557,-3.84965 v -9.09449 h 2.38989 v 9.02989 q 0,3.17791 2.58366,3.17791 2.73869,0 3.64297,-2.04109 V 145.8648 h 2.38988 v 13.97761 h -2.27362 z"
           style="font-size:26.4567px;line-height:2;font-family:Roboto;-inkscape-font-specification:Roboto;text-align:center;text-anchor:middle;fill:#5a5a5a;fill-opacity:1;stroke-width:6.04724;stroke-linecap:round;stroke-linejoin:round;paint-order:markers fill stroke"
           id="path14139" />
        <path
           d="m 163.48911,158.15011 q 1.27891,0 2.23486,-0.7751 0.95596,-0.7751 1.05931,-1.93775 h 2.2607 q -0.0646,1.20141 -0.82677,2.28654 -0.76218,1.08514 -2.0411,1.73106 -1.26599,0.64591 -2.687,0.64591 -2.85495,0 -4.54725,-1.89899 -1.67938,-1.91191 -1.67938,-5.219 v -0.40046 q 0,-2.0411 0.74926,-3.63005 0.74926,-1.58895 2.14444,-2.4674 1.4081,-0.87844 3.32001,-0.87844 2.35113,0 3.90133,1.4081 1.56311,1.40809 1.66646,3.65588 h -2.2607 q -0.10335,-1.35643 -1.03347,-2.22195 -0.9172,-0.87845 -2.27362,-0.87845 -1.82148,0 -2.82911,1.31767 -0.99471,1.30475 -0.99471,3.78507 v 0.45214 q 0,2.41572 0.99471,3.72047 0.99471,1.30475 2.84203,1.30475 z"
           style="font-size:26.4567px;line-height:2;font-family:Roboto;-inkscape-font-specification:Roboto;text-align:center;text-anchor:middle;fill:#5a5a5a;fill-opacity:1;stroke-width:6.04724;stroke-linecap:round;stroke-linejoin:round;paint-order:markers fill stroke"
           id="path14141" />
        <path
           d="m 180.36042,159.84241 q -0.20669,-0.41339 -0.33587,-1.47269 -1.66647,1.73105 -3.97884,1.73105 -2.06693,0 -3.39752,-1.16264 -1.31767,-1.17557 -1.31767,-2.97122 0,-2.18319 1.65355,-3.38459 1.66646,-1.21432 4.67642,-1.21432 h 2.3253 v -1.09806 q 0,-1.25308 -0.74926,-1.98942 -0.74926,-0.74926 -2.20903,-0.74926 -1.27892,0 -2.14444,0.64591 -0.86553,0.64592 -0.86553,1.56312 h -2.4028 q 0,-1.04638 0.73634,-2.01526 0.74926,-0.98179 2.01526,-1.5502 1.27891,-0.5684 2.80327,-0.5684 2.41572,0 3.78506,1.21432 1.36934,1.2014 1.42102,3.32001 v 6.43331 q 0,1.92483 0.49089,3.06164 v 0.2067 z m -3.96592,-1.82148 q 1.12389,0 2.13152,-0.58133 1.00763,-0.58132 1.45977,-1.51144 v -2.86787 h -1.87315 q -4.39223,0 -4.39223,2.57075 0,1.12389 0.74926,1.75689 0.74926,0.633 1.92483,0.633 z"
           style="font-size:26.4567px;line-height:2;font-family:Roboto;-inkscape-font-specification:Roboto;text-align:center;text-anchor:middle;fill:#5a5a5a;fill-opacity:1;stroke-width:6.04724;stroke-linecap:round;stroke-linejoin:round;paint-order:markers fill stroke"
           id="path14143" />
        <path
           d="m 191.75437,158.15011 q 1.27892,0 2.23487,-0.7751 0.95596,-0.7751 1.0593,-1.93775 h 2.26071 q -0.0646,1.20141 -0.82678,2.28654 -0.76218,1.08514 -2.04109,1.73106 -1.26599,0.64591 -2.68701,0.64591 -2.85494,0 -4.54724,-1.89899 -1.67938,-1.91191 -1.67938,-5.219 v -0.40046 q 0,-2.0411 0.74926,-3.63005 0.74926,-1.58895 2.14444,-2.4674 1.40809,-0.87844 3.32,-0.87844 2.35114,0 3.90133,1.4081 1.56312,1.40809 1.66647,3.65588 h -2.26071 q -0.10334,-1.35643 -1.03346,-2.22195 -0.9172,-0.87845 -2.27363,-0.87845 -1.82148,0 -2.82911,1.31767 -0.99471,1.30475 -0.99471,3.78507 v 0.45214 q 0,2.41572 0.99471,3.72047 0.99471,1.30475 2.84203,1.30475 z"
           style="font-size:26.4567px;line-height:2;font-family:Roboto;-inkscape-font-specification:Roboto;text-align:center;text-anchor:middle;fill:#5a5a5a;fill-opacity:1;stroke-width:6.04724;stroke-linecap:round;stroke-linejoin:round;paint-order:markers fill stroke"
           id="path14145" />
        <path
           d="m 202.59283,159.84241 h -2.38988 V 145.8648 h 2.38988 z m -2.58366,-17.68517 q 0,-0.58132 0.3488,-0.98179 0.36171,-0.40047 1.0593,-0.40047 0.69759,0 1.0593,0.40047 0.36171,0.40047 0.36171,0.98179 0,0.58132 -0.36171,0.96887 -0.36171,0.38755 -1.0593,0.38755 -0.69759,0 -1.0593,-0.38755 -0.3488,-0.38755 -0.3488,-0.96887 z"
           style="font-size:26.4567px;line-height:2;font-family:Roboto;-inkscape-font-specification:Roboto;text-align:center;text-anchor:middle;fill:#5a5a5a;fill-opacity:1;stroke-width:6.04724;stroke-linecap:round;stroke-linejoin:round;paint-order:markers fill stroke"
           id="path14147" />
        <path
           d="m 205.77073,152.72442 q 0,-2.05401 0.80094,-3.69464 0.81385,-1.64062 2.24779,-2.53199 1.44685,-0.89136 3.29416,-0.89136 2.85495,0 4.61184,1.9765 1.76981,1.9765 1.76981,5.25775 v 0.16794 q 0,2.04109 -0.78802,3.6688 -0.7751,1.61479 -2.23487,2.51907 -1.44685,0.90428 -3.33292,0.90428 -2.84203,0 -4.61184,-1.9765 -1.75689,-1.9765 -1.75689,-5.23191 z m 2.40281,0.2842 q 0,2.3253 1.07222,3.73339 1.08514,1.4081 2.8937,1.4081 1.82148,0 2.8937,-1.42102 1.07222,-1.43393 1.07222,-4.00467 0,-2.29946 -1.09805,-3.72048 -1.08514,-1.43393 -2.89371,-1.43393 -1.7698,0 -2.85494,1.4081 -1.08514,1.40809 -1.08514,4.03051 z m 5.02522,-13.00874 h 2.8937 l -3.4621,3.79799 h -1.92483 z"
           style="font-size:26.4567px;line-height:2;font-family:Roboto;-inkscape-font-specification:Roboto;text-align:center;text-anchor:middle;fill:#5a5a5a;fill-opacity:1;stroke-width:6.04724;stroke-linecap:round;stroke-linejoin:round;paint-order:markers fill stroke"
           id="path14149" />
        <path
           d="m 223.75303,145.8648 0.0775,1.75689 q 1.60187,-2.01526 4.18553,-2.01526 4.43098,0 4.46974,4.99939 v 9.23659 h -2.38989 v -9.24951 q -0.0129,-1.51145 -0.69759,-2.23487 -0.67175,-0.72343 -2.10568,-0.72343 -1.16265,0 -2.0411,0.62008 -0.87844,0.62008 -1.36934,1.62771 v 9.96002 h -2.38989 V 145.8648 Z"
           style="font-size:26.4567px;line-height:2;font-family:Roboto;-inkscape-font-specification:Roboto;text-align:center;text-anchor:middle;fill:#5a5a5a;fill-opacity:1;stroke-width:6.04724;stroke-linecap:round;stroke-linejoin:round;paint-order:markers fill stroke"
           id="path14151" />
        <path
           d="m 254.48569,153.00862 q 0,3.19082 -1.45977,5.14149 -1.45977,1.95066 -3.95301,1.95066 -2.5449,0 -4.00467,-1.61479 v 6.73044 h -2.38989 V 145.8648 h 2.1832 l 0.11626,1.55019 q 1.45977,-1.80856 4.05635,-1.80856 2.51907,0 3.97884,1.89899 1.47269,1.89899 1.47269,5.28359 z m -2.38989,-0.27128 q 0,-2.36405 -1.00763,-3.7334 -1.00763,-1.36934 -2.76452,-1.36934 -2.17027,0 -3.25541,1.92483 v 6.67877 q 1.07222,1.91191 3.28125,1.91191 1.71813,0 2.72576,-1.35642 1.02055,-1.36934 1.02055,-4.05635 z"
           style="font-size:26.4567px;line-height:2;font-family:Roboto;-inkscape-font-specification:Roboto;text-align:center;text-anchor:middle;fill:#5a5a5a;fill-opacity:1;stroke-width:6.04724;stroke-linecap:round;stroke-linejoin:round;paint-order:markers fill stroke"
           id="path14153" />
        <path
           d="m 266.138,159.84241 q -0.2067,-0.41339 -0.33588,-1.47269 -1.66646,1.73105 -3.97884,1.73105 -2.06693,0 -3.39751,-1.16264 -1.31767,-1.17557 -1.31767,-2.97122 0,-2.18319 1.65354,-3.38459 1.66646,-1.21432 4.67643,-1.21432 h 2.3253 v -1.09806 q 0,-1.25308 -0.74927,-1.98942 -0.74926,-0.74926 -2.20903,-0.74926 -1.27891,0 -2.14444,0.64591 -0.86552,0.64592 -0.86552,1.56312 h -2.40281 q 0,-1.04638 0.73635,-2.01526 0.74926,-0.98179 2.01525,-1.5502 1.27891,-0.5684 2.80328,-0.5684 2.41572,0 3.78506,1.21432 1.36934,1.2014 1.42101,3.32001 v 6.43331 q 0,1.92483 0.4909,3.06164 v 0.2067 z m -3.96592,-1.82148 q 1.12389,0 2.13152,-0.58133 1.00763,-0.58132 1.45977,-1.51144 v -2.86787 h -1.87316 q -4.39222,0 -4.39222,2.57075 0,1.12389 0.74926,1.75689 0.74926,0.633 1.92483,0.633 z"
           style="font-size:26.4567px;line-height:2;font-family:Roboto;-inkscape-font-specification:Roboto;text-align:center;text-anchor:middle;fill:#5a5a5a;fill-opacity:1;stroke-width:6.04724;stroke-linecap:round;stroke-linejoin:round;paint-order:markers fill stroke"
           id="path14155" />
        <path
           d="m 278.68168,148.00924 q -0.54257,-0.0904 -1.17556,-0.0904 -2.35114,0 -3.19083,2.00233 v 9.92127 h -2.38988 V 145.8648 h 2.32529 l 0.0388,1.61478 q 1.17556,-1.87315 3.33292,-1.87315 0.69759,0 1.0593,0.18086 z"
           style="font-size:26.4567px;line-height:2;font-family:Roboto;-inkscape-font-specification:Roboto;text-align:center;text-anchor:middle;fill:#5a5a5a;fill-opacity:1;stroke-width:6.04724;stroke-linecap:round;stroke-linejoin:round;paint-order:markers fill stroke"
           id="path14157" />
        <path
           d="m 288.97757,159.84241 q -0.2067,-0.41339 -0.33588,-1.47269 -1.66646,1.73105 -3.97884,1.73105 -2.06693,0 -3.39751,-1.16264 -1.31767,-1.17557 -1.31767,-2.97122 0,-2.18319 1.65354,-3.38459 1.66646,-1.21432 4.67643,-1.21432 h 2.3253 v -1.09806 q 0,-1.25308 -0.74927,-1.98942 -0.74926,-0.74926 -2.20903,-0.74926 -1.27891,0 -2.14444,0.64591 -0.86552,0.64592 -0.86552,1.56312 h -2.40281 q 0,-1.04638 0.73634,-2.01526 0.74927,-0.98179 2.01526,-1.5502 1.27891,-0.5684 2.80327,-0.5684 2.41573,0 3.78507,1.21432 1.36934,1.2014 1.42101,3.32001 v 6.43331 q 0,1.92483 0.4909,3.06164 v 0.2067 z m -3.96592,-1.82148 q 1.12389,0 2.13152,-0.58133 1.00763,-0.58132 1.45977,-1.51144 v -2.86787 h -1.87316 q -4.39222,0 -4.39222,2.57075 0,1.12389 0.74926,1.75689 0.74926,0.633 1.92483,0.633 z"
           style="font-size:26.4567px;line-height:2;font-family:Roboto;-inkscape-font-specification:Roboto;text-align:center;text-anchor:middle;fill:#5a5a5a;fill-opacity:1;stroke-width:6.04724;stroke-linecap:round;stroke-linejoin:round;paint-order:markers fill stroke"
           id="path14159" />
        <path
           d="m 309.95691,159.84241 q -0.2067,-0.41339 -0.33588,-1.47269 -1.66646,1.73105 -3.97884,1.73105 -2.06693,0 -3.39751,-1.16264 -1.31767,-1.17557 -1.31767,-2.97122 0,-2.18319 1.65354,-3.38459 1.66646,-1.21432 4.67643,-1.21432 h 2.3253 v -1.09806 q 0,-1.25308 -0.74927,-1.98942 -0.74926,-0.74926 -2.20903,-0.74926 -1.27891,0 -2.14444,0.64591 -0.86552,0.64592 -0.86552,1.56312 h -2.40281 q 0,-1.04638 0.73634,-2.01526 0.74927,-0.98179 2.01526,-1.5502 1.27891,-0.5684 2.80327,-0.5684 2.41573,0 3.78507,1.21432 1.36934,1.2014 1.42101,3.32001 v 6.43331 q 0,1.92483 0.4909,3.06164 v 0.2067 z m -3.96592,-1.82148 q 1.12389,0 2.13152,-0.58133 1.00762,-0.58132 1.45977,-1.51144 v -2.86787 h -1.87316 q -4.39222,0 -4.39222,2.57075 0,1.12389 0.74926,1.75689 0.74926,0.633 1.92483,0.633 z"
           style="font-size:26.4567px;line-height:2;font-family:Roboto;-inkscape-font-specification:Roboto;text-align:center;text-anchor:middle;fill:#5a5a5a;fill-opacity:1;stroke-width:6.04724;stroke-linecap:round;stroke-linejoin:round;paint-order:markers fill stroke"
           id="path14161" />
        <path
           d="m 325.17468,157.81423 h 8.91363 v 2.02818 h -11.40686 v -18.80906 h 2.49323 z"
           style="font-size:26.4567px;line-height:2;font-family:Roboto;-inkscape-font-specification:Roboto;text-align:center;text-anchor:middle;fill:#5a5a5a;fill-opacity:1;stroke-width:6.04724;stroke-linecap:round;stroke-linejoin:round;paint-order:markers fill stroke"
           id="path14163" />
        <path
           d="m 339.16521,159.84241 h -2.38989 V 145.8648 h 2.38989 z m -2.58367,-17.68517 q 0,-0.58132 0.3488,-0.98179 0.36171,-0.40047 1.0593,-0.40047 0.69759,0 1.0593,0.40047 0.36171,0.40047 0.36171,0.98179 0,0.58132 -0.36171,0.96887 -0.36171,0.38755 -1.0593,0.38755 -0.69759,0 -1.0593,-0.38755 -0.3488,-0.38755 -0.3488,-0.96887 z"
           style="font-size:26.4567px;line-height:2;font-family:Roboto;-inkscape-font-specification:Roboto;text-align:center;text-anchor:middle;fill:#5a5a5a;fill-opacity:1;stroke-width:6.04724;stroke-linecap:round;stroke-linejoin:round;paint-order:markers fill stroke"
           id="path14165" />
        <path
           d="m 354.80928,153.00862 q 0,3.20374 -1.47268,5.15441 -1.47269,1.93774 -3.95301,1.93774 -2.64825,0 -4.0951,-1.87315 l -0.11627,1.61479 h -2.19611 v -19.84253 h 2.38989 v 7.40219 q 1.44685,-1.79564 3.99176,-1.79564 2.5449,0 3.99175,1.92483 1.45977,1.92483 1.45977,5.27067 z m -2.38988,-0.27128 q 0,-2.44156 -0.94304,-3.77215 -0.94304,-1.33059 -2.71285,-1.33059 -2.36405,0 -3.39751,2.19612 v 6.04577 q 1.09806,2.19611 3.42335,2.19611 1.71814,0 2.67409,-1.33059 0.95596,-1.33058 0.95596,-4.00467 z"
           style="font-size:26.4567px;line-height:2;font-family:Roboto;-inkscape-font-specification:Roboto;text-align:center;text-anchor:middle;fill:#5a5a5a;fill-opacity:1;stroke-width:6.04724;stroke-linecap:round;stroke-linejoin:round;paint-order:markers fill stroke"
           id="path14167" />
        <path
           d="m 363.60665,160.10077 q -2.84203,0 -4.62476,-1.86023 -1.78272,-1.87316 -1.78272,-4.99939 v -0.43922 q 0,-2.07985 0.78801,-3.70756 0.80094,-1.64062 2.22195,-2.55782 1.43393,-0.93012 3.1004,-0.93012 2.72576,0 4.2372,1.79564 1.51144,1.79565 1.51144,5.14149 v 0.99471 h -9.46912 q 0.0517,2.06693 1.20141,3.34584 1.16264,1.266 2.94537,1.266 1.266,0 2.14444,-0.51673 0.87845,-0.51674 1.53728,-1.36934 l 1.45977,1.13681 q -1.75689,2.69992 -5.27067,2.69992 z m -0.29712,-12.53076 q -1.44685,0 -2.42865,1.0593 -0.98179,1.04639 -1.21432,2.94538 h 7.00173 v -0.18086 q -0.10335,-1.82148 -0.98179,-2.81619 -0.87845,-1.00763 -2.37697,-1.00763 z"
           style="font-size:26.4567px;line-height:2;font-family:Roboto;-inkscape-font-specification:Roboto;text-align:center;text-anchor:middle;fill:#5a5a5a;fill-opacity:1;stroke-width:6.04724;stroke-linecap:round;stroke-linejoin:round;paint-order:markers fill stroke"
           id="path14169" />
        <path
           d="m 378.56605,148.00924 q -0.54257,-0.0904 -1.17556,-0.0904 -2.35114,0 -3.19083,2.00233 v 9.92127 h -2.38988 V 145.8648 h 2.32529 l 0.0388,1.61478 q 1.17556,-1.87315 3.33292,-1.87315 0.69759,0 1.0593,0.18086 z"
           style="font-size:26.4567px;line-height:2;font-family:Roboto;-inkscape-font-specification:Roboto;text-align:center;text-anchor:middle;fill:#5a5a5a;fill-opacity:1;stroke-width:6.04724;stroke-linecap:round;stroke-linejoin:round;paint-order:markers fill stroke"
           id="path14171" />
        <path
           d="m 379.90957,152.73734 q 0,-3.21666 1.52436,-5.16733 1.52436,-1.96358 3.99176,-1.96358 2.45448,0 3.88841,1.67938 v -7.28593 h 2.38989 v 19.84253 h -2.19611 l -0.11627,-1.49853 q -1.43393,1.75689 -3.99176,1.75689 -2.42864,0 -3.96592,-1.98942 -1.52436,-1.98942 -1.52436,-5.19316 z m 2.38989,0.27128 q 0,2.37697 0.98179,3.72047 0.98179,1.34351 2.71285,1.34351 2.27362,0 3.32,-2.04109 v -6.4204 q -1.07222,-1.97651 -3.29417,-1.97651 -1.75689,0 -2.73868,1.35643 -0.98179,1.35642 -0.98179,4.01759 z"
           style="font-size:26.4567px;line-height:2;font-family:Roboto;-inkscape-font-specification:Roboto;text-align:center;text-anchor:middle;fill:#5a5a5a;fill-opacity:1;stroke-width:6.04724;stroke-linecap:round;stroke-linejoin:round;paint-order:markers fill stroke"
           id="path14173" />
        <path
           d="m 404.05389,159.84241 q -0.20669,-0.41339 -0.33587,-1.47269 -1.66647,1.73105 -3.97884,1.73105 -2.06693,0 -3.39752,-1.16264 -1.31767,-1.17557 -1.31767,-2.97122 0,-2.18319 1.65355,-3.38459 1.66646,-1.21432 4.67642,-1.21432 h 2.3253 v -1.09806 q 0,-1.25308 -0.74926,-1.98942 -0.74926,-0.74926 -2.20903,-0.74926 -1.27892,0 -2.14444,0.64591 -0.86553,0.64592 -0.86553,1.56312 h -2.4028 q 0,-1.04638 0.73634,-2.01526 0.74926,-0.98179 2.01526,-1.5502 1.27891,-0.5684 2.80327,-0.5684 2.41572,0 3.78506,1.21432 1.36934,1.2014 1.42102,3.32001 v 6.43331 q 0,1.92483 0.49089,3.06164 v 0.2067 z m -3.96592,-1.82148 q 1.12389,0 2.13152,-0.58133 1.00763,-0.58132 1.45977,-1.51144 v -2.86787 h -1.87315 q -4.39223,0 -4.39223,2.57075 0,1.12389 0.74926,1.75689 0.74926,0.633 1.92483,0.633 z"
           style="font-size:26.4567px;line-height:2;font-family:Roboto;-inkscape-font-specification:Roboto;text-align:center;text-anchor:middle;fill:#5a5a5a;fill-opacity:1;stroke-width:6.04724;stroke-linecap:round;stroke-linejoin:round;paint-order:markers fill stroke"
           id="path14175" />
        <path
           d="m 409.25995,152.73734 q 0,-3.21666 1.52436,-5.16733 1.52436,-1.96358 3.99175,-1.96358 2.45448,0 3.88842,1.67938 v -7.28593 h 2.38988 v 19.84253 h -2.19611 l -0.11626,-1.49853 q -1.43394,1.75689 -3.99176,1.75689 -2.42865,0 -3.96592,-1.98942 -1.52436,-1.98942 -1.52436,-5.19316 z m 2.38988,0.27128 q 0,2.37697 0.98179,3.72047 0.9818,1.34351 2.71285,1.34351 2.27362,0 3.32001,-2.04109 v -6.4204 q -1.07222,-1.97651 -3.29417,-1.97651 -1.75689,0 -2.73869,1.35643 -0.98179,1.35642 -0.98179,4.01759 z"
           style="font-size:26.4567px;line-height:2;font-family:Roboto;-inkscape-font-specification:Roboto;text-align:center;text-anchor:middle;fill:#5a5a5a;fill-opacity:1;stroke-width:6.04724;stroke-linecap:round;stroke-linejoin:round;paint-order:markers fill stroke"
           id="path14177" />
        <path
           d="m 430.57518,160.10077 q -2.84202,0 -4.62475,-1.86023 -1.78273,-1.87316 -1.78273,-4.99939 v -0.43922 q 0,-2.07985 0.78802,-3.70756 0.80093,-1.64062 2.22195,-2.55782 1.43393,-0.93012 3.10039,-0.93012 2.72577,0 4.23721,1.79564 1.51144,1.79565 1.51144,5.14149 v 0.99471 h -9.46912 q 0.0517,2.06693 1.2014,3.34584 1.16265,1.266 2.94538,1.266 1.26599,0 2.14444,-0.51673 0.87844,-0.51674 1.53728,-1.36934 l 1.45976,1.13681 q -1.75689,2.69992 -5.27067,2.69992 z m -0.29712,-12.53076 q -1.44685,0 -2.42864,1.0593 -0.98179,1.04639 -1.21432,2.94538 h 7.00172 v -0.18086 q -0.10334,-1.82148 -0.98179,-2.81619 -0.87844,-1.00763 -2.37697,-1.00763 z"
           style="font-size:26.4567px;line-height:2;font-family:Roboto;-inkscape-font-specification:Roboto;text-align:center;text-anchor:middle;fill:#5a5a5a;fill-opacity:1;stroke-width:6.04724;stroke-linecap:round;stroke-linejoin:round;paint-order:markers fill stroke"
           id="path14179" />
      </g>
      <path
         id="path24"
         style="fill:#f9aa24;fill-opacity:1;fill-rule:nonzero;stroke:none;stroke-width:1.33333"
         d="m 318.71033,77.927534 c 0.676,-0.209333 1.39867,-0.324 2.10667,-0.36 3.43066,-0.168 5.4,2.872 3.888,5.988 -0.708,1.46 -1.93334,2.388 -3.36667,3.048 -3.43333,1.581333 -7,1.544 -10.76933,0.834666 1.39866,-4.409333 3.484,-8.067999 8.14133,-9.510666 m 144.108,-30.462666 c 1.25733,-1.026667 2.73466,-1.597333 4.37466,-1.64 2.08,-0.052 3.42534,1.328 3.32667,3.408 -0.11333,2.369333 -1.25467,4.225333 -2.96533,5.782667 -2.45867,2.241333 -8.17467,4.906666 -11.80534,5.458666 1.41334,-4.914666 2.95734,-9.654666 7.06934,-13.009333 M 500.99299,90.4942 c -2.508,-0.778666 -5.016,-1.550666 -7.568,-2.34 -0.39066,1.765334 -0.71333,3.426667 -1.132,5.062667 -0.72666,2.826667 -1.696,5.561333 -3.45466,7.940003 -0.96134,1.3 -2.14,2.34133 -3.736,2.804 -2.67867,0.77866 -4.43467,-0.21867 -4.81734,-2.98267 -0.23733,-1.7 -0.14666,-3.46 -0.0733,-5.188 0.14267,-3.388 0.68267,-6.788 0.50667,-10.156 -0.36534,-6.969333 -5.70134,-11.869333 -12.67067,-12.186666 -5.632,-0.257333 -9.968,2.174667 -13.592,6.228 -0.25333,0.281333 -0.504,0.565333 -0.756,0.848 -0.11333,-2.802667 0.0547,-5.477333 0.10267,-8.153333 0.0187,-1.026667 0.432,-1.4 1.37733,-1.657333 5.42133,-1.48 10.824,-3.028 15.86133,-5.605334 7.24534,-3.708 11.54134,-9.286666 11.052,-17.753333 -0.28666,-4.966666 -2.64266,-8.773333 -7.15733,-11.017333 -1.35867,-0.676 -2.91333,-0.953333 -4.37867,-1.413333 h -3.852 c -0.21466,0.06533 -0.42533,0.166667 -0.644,0.192 -5.656,0.645333 -10.06933,3.428 -13.47466,7.894667 -3.50134,4.593333 -5.40934,9.901333 -6.73334,15.445332 -2.2,9.209334 -2.73066,18.589333 -2.56666,28.008 0.0853,4.917333 -1.80534,8.905333 -5.14667,12.249333 -4.37333,4.376003 -9.86667,5.797333 -15.888,5.378663 -3.79733,-0.264 -6.976,-1.864 -9.28,-4.966663 -2.284,-3.076 -2.66133,-6.596 -2.144,-10.254667 0.428,-3.017333 1.50667,-5.767999 3.78667,-7.911999 4.156,-3.912 10.11333,-2.892 12.668,2.157333 0.112,0.222667 0.24133,0.437333 0.412,0.744 2.988,-2.098667 5.90266,-4.148 8.83333,-6.206667 -1.64133,-3.693333 -3.98533,-6.617333 -7.58133,-8.246666 -6.44667,-2.921333 -12.73334,-2.137333 -18.55067,1.621333 -7.02933,4.541333 -10.31467,11.410667 -11.18933,19.538666 -0.37067,3.444 -1.436,6.62 -3.20667,9.56133 -0.51733,0.86 -1.25333,1.59734 -1.93333,2.34934 -0.29867,0.32933 -0.69067,0.588 -1.076,0.82266 -3.33067,2.03067 -6.43734,0.728 -6.89467,-3.12266 -0.33067,-2.792003 -0.156,-5.645336 -0.188,-8.47067 -0.0187,-1.649333 -0.003,-3.298666 -0.003,-5.009333 h -11.39466 c 0.028,0.48 0.0667,0.885333 0.0733,1.292 0.0827,4.646667 -0.772,9.036 -3.79733,12.734663 -2.16,2.63867 -4.96,3.98134 -8.40533,3.28934 -3.296,-0.65867 -5.03067,-3.048 -5.89334,-6.085337 C 356.078,96.4942 355.858,94.9622 355.842,93.471534 c -0.06,-5.450667 1.924,-9.965333 6.552,-13.058667 4.01467,-2.684 8.79333,-2.373333 11.988,0.710667 0.79867,0.770667 1.41333,1.728 2.168,2.669333 2.876,-2.02 5.79467,-4.070666 8.78667,-6.172 -0.46667,-0.793333 -0.804,-1.518666 -1.27467,-2.142666 -4.68133,-6.197333 -11.06933,-8.448 -18.55733,-7.553333 -8.44,1.008 -14.33734,5.787999 -18.072,13.273333 -1,2.005333 -1.78134,4.182666 -2.26667,6.367999 -1.144,5.164 -3.92933,9.261334 -8.06,12.321333 -6.37867,4.726667 -13.472,5.615997 -20.904,2.810667 -2.90267,-1.096 -4.73733,-3.366667 -5.58933,-6.146666 2.60533,0 5.20133,0.114666 7.78266,-0.024 5.648,-0.3 10.62134,-2.232 14.408,-6.594667 6.312,-7.272 3.69734,-17.958666 -5.25066,-21.162666 -5.70934,-2.044 -11.27734,-1.237333 -16.424,1.86 -6.12534,3.686666 -9.368,9.436 -11.01467,16.213333 -0.656,2.696 -0.71333,5.512 -1.968,8.094666 -2.57067,5.28667 -6.30133,8.88533 -12.48667,9.252 -4.49066,0.26667 -7.964,-2.308 -8.87333,-6.708 -0.23467,-1.136 -0.39333,-2.337333 -0.29067,-3.482666 0.46134,-5.145334 1.06534,-10.276 1.52934,-15.421333 0.10533,-1.162667 0.56666,-1.381334 1.62,-1.350667 2.98133,0.08533 5.96666,0.04667 8.95066,0.08667 1.04534,0.01333 2.08934,0.113333 3.19467,0.178666 0.352,-3.144 0.69467,-6.206666 1.072,-9.590666 h -13.088 c 1.03467,-4.889333 1.996,-9.437333 2.97333,-14.058666 -3.68933,-0.782667 -7.244,-1.537334 -10.89866,-2.313334 -1.19734,5.296 -2.35867,10.426667 -3.54267,15.656 -1.716,-0.192 -3.384,-0.377333 -5.09067,-0.566667 -0.56533,3.224 -1.11066,6.329333 -1.67733,9.56 1.81467,0.2 3.51333,0.386667 5.25733,0.577333 -0.0413,0.32 -0.0613,0.541334 -0.10133,0.76 -1.28267,7.130667 -1.63733,14.329333 -1.42933,21.550666 0.18266,6.372004 3.196,11.061334 8.92133,13.901334 8.49067,4.212 20.68133,2.08533 27.79467,-4.79333 0.47866,-0.46534 0.916,-0.97467 1.368,-1.46 4.49866,4.292 7.12666,5.96 11.152,7.08133 9.308,2.59467 18.09866,1.25333 26.36,-3.62667 2.08933,-1.23466 3.988,-2.79333 6.02,-4.23333 3.20266,5.46133 7.95333,8.69733 14.412,9.07867 6.30133,0.37333 11.624,-1.99867 16.19466,-6.22934 4.664,7.924 19.14933,9.41734 26.54533,-1.49866 2.16934,2.43066 4.70267,4.37466 7.732,5.56 9.136,3.57333 18.10934,2.81466 26.90267,-1.21467 1.51867,-0.696 2.924,-1.64133 4.48667,-2.53333 -0.10134,1.73866 -0.19734,3.38 -0.296,5.056 h 11.088 c 0,-3.82934 -0.003,-7.56667 10e-4,-11.30534 0.004,-3.64133 0.348,-7.242663 1.45333,-10.727997 0.88134,-2.781333 2.14134,-5.348 4.77867,-6.916 3.82267,-2.271999 7.68133,-0.771999 8.49733,3.568 0.496,2.630667 0.31734,5.392 0.40134,8.097334 0.0707,2.258666 -0.0987,4.541333 0.15333,6.777333 0.70267,6.208 4.592,10.408 10.36933,11.212 7.344,1.02133 13.28534,-1.468 17.692,-7.464 2.95734,-4.02667 4.596,-8.626667 5.692,-13.449333 0.324,-1.428 0.52,-2.532 0.52,-2.532 0,0 -1.31733,-0.550667 -2.512,-0.921334"
         inkscape:label="teach" />
      <g
         id="g11"
         style="fill:#2c2525;fill-opacity:1"
         inkscape:label="ROBO">
        <path
           id="path28"
           style="fill:#2c2525;fill-opacity:1;fill-rule:nonzero;stroke:none;stroke-width:1.33333"
           d="m 119.7462,100.72846 c -6.48133,-0.0693 -11.80533,-5.499998 -11.732,-11.965331 0.076,-6.652 5.44667,-11.918666 12.08,-11.848 6.48,0.06933 11.80534,5.5 11.732,11.965333 -0.0773,6.652 -5.44666,11.918668 -12.08,11.847998 m 20.38,-27.699997 c -5.552,-3.197334 -11.09866,-6.404 -16.64266,-9.616 -1.96,-1.137333 -5.168,-1.137333 -7.128,-0.0013 -5.54534,3.213333 -11.09467,6.419999 -16.64667,9.619999 -1.961333,1.130667 -3.562666,3.905334 -3.56,6.169334 0.0093,6.415999 0.0093,12.831999 0.0013,19.247999 -0.0027,2.261335 1.597333,5.034665 3.557333,6.163995 5.554667,3.20001 11.105337,6.40667 16.653337,9.61867 1.95733,1.13467 5.16133,1.13467 7.11866,0 5.54533,-3.212 11.09467,-6.41866 16.64667,-9.616 1.968,-1.13333 3.564,-3.91466 3.55866,-6.185332 -0.007,-3.185333 0,-6.371999 0,-9.559999 0,-3.22 -0.005,-6.44 0.001,-9.661333 0.004,-2.268 -1.59466,-5.048 -3.56,-6.18" />
        <path
           id="path32"
           style="fill:#2c2525;fill-opacity:1;fill-rule:nonzero;stroke:none;stroke-width:1.33333"
           d="m 119.62967,81.326062 c -4.14133,0 -7.5,3.357333 -7.5,7.5 0,4.141333 3.35867,7.5 7.5,7.5 4.14133,0 7.5,-3.358667 7.5,-7.5 0,-4.142667 -3.35867,-7.5 -7.5,-7.5" />
        <path
           id="path36"
           style="fill:#2c2525;fill-opacity:1;fill-rule:nonzero;stroke:none;stroke-width:1.33333"
           d="M 69.131004,89.559795 H 59.809671 V 74.394462 h 9.321333 c 3.994667,0 6.14,3.033333 6.14,7.472 0,4.438666 -2.145333,7.693333 -6.14,7.693333 m 10.653333,9.617333 c 5.694667,-2.885333 8.58,-8.581333 8.58,-16.791999 0,-12.354667 -6.584,-19.825333 -19.233333,-19.825333 H 46.495005 v 52.522664 h 13.314666 v -13.68667 h 5.918666 l 7.397334,13.68667 h 17.310666 v -11.83733 h -8.36 z" />
        <path
           id="path40"
           style="fill:#2c2525;fill-opacity:1;fill-rule:nonzero;stroke:none;stroke-width:1.33333"
           d="M 174.62447,103.39379 H 163.8978 v -8.655995 h 10.208 c 2.516,0 4.43867,1.702667 4.43867,4.661333 0,2.218672 -1.256,3.994672 -3.92,3.994672 M 163.8978,73.951129 h 8.43334 c 2.96,0 4.21733,2.441333 4.21733,4.661333 0,2.070667 -1.48,4.216 -4.21733,4.216 h -8.43334 z m 21.82267,13.833333 c 2.44133,-1.774667 4.21733,-5.621333 4.21733,-9.172 0,-9.839999 -6.732,-16.053333 -16.57066,-16.053333 h -22.784 V 115.0818 h 24.92933 c 10.948,0 16.644,-6.95334 16.644,-16.126672 0,-4.734666 -2.21867,-8.877333 -6.436,-11.170666" />
        <path
           id="path44"
           style="fill:#2c2525;fill-opacity:1;fill-rule:nonzero;stroke:none;stroke-width:1.33333"
           d="m 237.3914,90.998595 -9.256,9.255995 c -1.20133,1.20134 -3.14933,1.20134 -4.352,0 l -9.25467,-9.255995 c -1.20266,-1.201333 -1.20266,-3.150667 0,-4.352 l 9.25467,-9.256 c 1.19733,-1.197333 3.156,-1.197333 4.352,0 l 9.256,9.256 c 1.20133,1.201333 1.20133,3.150667 0,4.352 m 13.06667,-6.841333 -19.83467,-19.836 c -2.56533,-2.565333 -6.76133,-2.565333 -9.32667,0 l -19.836,19.836 c -2.57466,2.576 -2.57466,6.750666 0,9.326666 l 19.836,19.836002 c 2.57467,2.57466 6.75067,2.57466 9.32667,0 l 19.83467,-19.836002 c 2.576,-2.576 2.576,-6.750666 0,-9.326666" />
        <path
           id="path48"
           style="fill:#2c2525;fill-opacity:1;fill-rule:nonzero;stroke:none;stroke-width:1.33333"
           d="m 199.53206,79.846862 3.33067,-3.330667 -3.204,-3.204 c -0.916,-0.915999 -2.41467,-0.915999 -3.33067,0 -0.916,0.916 -0.916,2.414667 0,3.330667 z" />
        <path
           id="path52"
           style="fill:#2c2525;fill-opacity:1;fill-rule:nonzero;stroke:none;stroke-width:1.33333"
           d="m 206.5938,72.784996 3.33067,-3.330667 -3.20534,-3.204 c -0.91466,-0.915999 -2.41466,-0.915999 -3.33066,0 -0.91467,0.916 -0.91467,2.414667 0,3.330667 z" />
        <path
           id="path56"
           style="fill:#2c2525;fill-opacity:1;fill-rule:nonzero;stroke:none;stroke-width:1.33333"
           d="m 213.655,65.723263 3.33067,-3.330667 -3.204,-3.204 c -0.916,-0.915999 -2.41467,-0.915999 -3.33067,0 -0.916,0.916 -0.916,2.414667 0,3.330667 z" />
        <path
           id="path60"
           style="fill:#2c2525;fill-opacity:1;fill-rule:nonzero;stroke:none;stroke-width:1.33333"
           d="m 252.38753,97.794195 -3.33067,3.330665 3.204,3.204 c 0.916,0.916 2.41467,0.916 3.33067,0 0.916,-0.916 0.916,-2.41466 0,-3.33067 z" />
        <path
           id="path64"
           style="fill:#2c2525;fill-opacity:1;fill-rule:nonzero;stroke:none;stroke-width:1.33333"
           d="m 245.32566,104.85539 -3.33067,3.33067 3.204,3.20533 c 0.916,0.916 2.41467,0.916 3.33067,0 0.916,-0.916 0.916,-2.41466 0,-3.33066 z" />
        <path
           id="path68"
           style="fill:#2c2525;fill-opacity:1;fill-rule:nonzero;stroke:none;stroke-width:1.33333"
           d="m 238.2638,111.91726 -3.33067,3.33067 3.204,3.204 c 0.916,0.916 2.416,0.916 3.33067,0 0.916,-0.91467 0.916,-2.41467 0,-3.33067 z" />
        <path
           id="path72"
           style="fill:#2c2525;fill-opacity:1;fill-rule:nonzero;stroke:none;stroke-width:1.33333"
           d="m 210.4506,115.12233 c -0.916,0.916 -0.916,2.41466 0,3.33067 0.916,0.916 2.41467,0.916 3.33067,0 l 3.204,-3.20534 -3.33067,-3.33066 z" />
        <path
           id="path76"
           style="fill:#2c2525;fill-opacity:1;fill-rule:nonzero;stroke:none;stroke-width:1.33333"
           d="m 206.5938,104.85539 -3.20533,3.20534 c -0.91467,0.916 -0.91467,2.41466 0,3.33066 0.916,0.916 2.41466,0.916 3.33066,0 l 3.20534,-3.20533 z" />
        <path
           id="path80"
           style="fill:#2c2525;fill-opacity:1;fill-rule:nonzero;stroke:none;stroke-width:1.33333"
           d="m 199.53206,97.794195 -3.204,3.203995 c -0.916,0.916 -0.916,2.41467 0,3.33067 0.91467,0.916 2.41467,0.916 3.33067,0 l 3.204,-3.204 z" />
        <path
           id="path84"
           style="fill:#2c2525;fill-opacity:1;fill-rule:nonzero;stroke:none;stroke-width:1.33333"
           d="m 241.4682,62.518729 c 0.916,-0.916 0.916,-2.414667 0,-3.330667 -0.916,-0.916 -2.41467,-0.916 -3.33067,0 l -3.204,3.204 3.33067,3.330667 z" />
        <path
           id="path88"
           style="fill:#2c2525;fill-opacity:1;fill-rule:nonzero;stroke:none;stroke-width:1.33333"
           d="m 245.32566,72.784996 3.204,-3.204 c 0.916,-0.916 0.916,-2.414667 0,-3.330667 -0.916,-0.915999 -2.41467,-0.915999 -3.33067,0 l -3.204,3.204 z" />
        <path
           id="path92"
           style="fill:#2c2525;fill-opacity:1;fill-rule:nonzero;stroke:none;stroke-width:1.33333"
           d="m 252.38753,79.846862 3.204,-3.204 c 0.916,-0.916 0.916,-2.414667 0,-3.330667 -0.916,-0.915999 -2.41467,-0.915999 -3.33067,0 l -3.204,3.204 z" />
      </g>
    </g>
    <g
       id="g285"
       inkscape:label="Logo ROBOteach"
       transform="matrix(-0.75396544,0,0,-0.75396544,1308.7505,146.43222)">
      <g
         id="g266"
         style="fill:#5a5a5a;fill-opacity:1"
         inkscape:label="text">
        <path
           d="m 124.60499,151.14838 h -8.15145 v 6.66585 h 9.46912 v 2.02818 h -11.94944 v -18.80906 h 11.82026 v 2.04109 h -9.33994 v 6.04577 h 8.15145 z"
           style="font-size:26.4567px;line-height:2;font-family:Roboto;-inkscape-font-specification:Roboto;text-align:center;text-anchor:middle;fill:#5a5a5a;fill-opacity:1;stroke-width:6.04724;stroke-linecap:round;stroke-linejoin:round;paint-order:markers fill stroke"
           id="path238" />
        <path
           d="m 127.79582,152.73734 q 0,-3.21666 1.52436,-5.16733 1.52436,-1.96358 3.99176,-1.96358 2.45447,0 3.88841,1.67938 v -7.28593 h 2.38988 v 19.84253 h -2.19611 l -0.11626,-1.49853 q -1.43394,1.75689 -3.99176,1.75689 -2.42864,0 -3.96592,-1.98942 -1.52436,-1.98942 -1.52436,-5.19316 z m 2.38988,0.27128 q 0,2.37697 0.9818,3.72047 0.98179,1.34351 2.71284,1.34351 2.27362,0 3.32001,-2.04109 v -6.4204 q -1.07222,-1.97651 -3.29417,-1.97651 -1.75689,0 -2.73868,1.35643 -0.9818,1.35642 -0.9818,4.01759 z"
           style="font-size:26.4567px;line-height:2;font-family:Roboto;-inkscape-font-specification:Roboto;text-align:center;text-anchor:middle;fill:#5a5a5a;fill-opacity:1;stroke-width:6.04724;stroke-linecap:round;stroke-linejoin:round;paint-order:markers fill stroke"
           id="path239" />
        <path
           d="m 151.94014,158.46015 q -1.39518,1.64062 -4.09511,1.64062 -2.23486,0 -3.41043,-1.29183 -1.16265,-1.30475 -1.17557,-3.84965 v -9.09449 h 2.38989 v 9.02989 q 0,3.17791 2.58366,3.17791 2.73869,0 3.64297,-2.04109 V 145.8648 h 2.38988 v 13.97761 h -2.27362 z"
           style="font-size:26.4567px;line-height:2;font-family:Roboto;-inkscape-font-specification:Roboto;text-align:center;text-anchor:middle;fill:#5a5a5a;fill-opacity:1;stroke-width:6.04724;stroke-linecap:round;stroke-linejoin:round;paint-order:markers fill stroke"
           id="path240" />
        <path
           d="m 163.48911,158.15011 q 1.27891,0 2.23486,-0.7751 0.95596,-0.7751 1.05931,-1.93775 h 2.2607 q -0.0646,1.20141 -0.82677,2.28654 -0.76218,1.08514 -2.0411,1.73106 -1.26599,0.64591 -2.687,0.64591 -2.85495,0 -4.54725,-1.89899 -1.67938,-1.91191 -1.67938,-5.219 v -0.40046 q 0,-2.0411 0.74926,-3.63005 0.74926,-1.58895 2.14444,-2.4674 1.4081,-0.87844 3.32001,-0.87844 2.35113,0 3.90133,1.4081 1.56311,1.40809 1.66646,3.65588 h -2.2607 q -0.10335,-1.35643 -1.03347,-2.22195 -0.9172,-0.87845 -2.27362,-0.87845 -1.82148,0 -2.82911,1.31767 -0.99471,1.30475 -0.99471,3.78507 v 0.45214 q 0,2.41572 0.99471,3.72047 0.99471,1.30475 2.84203,1.30475 z"
           style="font-size:26.4567px;line-height:2;font-family:Roboto;-inkscape-font-specification:Roboto;text-align:center;text-anchor:middle;fill:#5a5a5a;fill-opacity:1;stroke-width:6.04724;stroke-linecap:round;stroke-linejoin:round;paint-order:markers fill stroke"
           id="path242" />
        <path
           d="m 180.36042,159.84241 q -0.20669,-0.41339 -0.33587,-1.47269 -1.66647,1.73105 -3.97884,1.73105 -2.06693,0 -3.39752,-1.16264 -1.31767,-1.17557 -1.31767,-2.97122 0,-2.18319 1.65355,-3.38459 1.66646,-1.21432 4.67642,-1.21432 h 2.3253 v -1.09806 q 0,-1.25308 -0.74926,-1.98942 -0.74926,-0.74926 -2.20903,-0.74926 -1.27892,0 -2.14444,0.64591 -0.86553,0.64592 -0.86553,1.56312 h -2.4028 q 0,-1.04638 0.73634,-2.01526 0.74926,-0.98179 2.01526,-1.5502 1.27891,-0.5684 2.80327,-0.5684 2.41572,0 3.78506,1.21432 1.36934,1.2014 1.42102,3.32001 v 6.43331 q 0,1.92483 0.49089,3.06164 v 0.2067 z m -3.96592,-1.82148 q 1.12389,0 2.13152,-0.58133 1.00763,-0.58132 1.45977,-1.51144 v -2.86787 h -1.87315 q -4.39223,0 -4.39223,2.57075 0,1.12389 0.74926,1.75689 0.74926,0.633 1.92483,0.633 z"
           style="font-size:26.4567px;line-height:2;font-family:Roboto;-inkscape-font-specification:Roboto;text-align:center;text-anchor:middle;fill:#5a5a5a;fill-opacity:1;stroke-width:6.04724;stroke-linecap:round;stroke-linejoin:round;paint-order:markers fill stroke"
           id="path243" />
        <path
           d="m 191.75437,158.15011 q 1.27892,0 2.23487,-0.7751 0.95596,-0.7751 1.0593,-1.93775 h 2.26071 q -0.0646,1.20141 -0.82678,2.28654 -0.76218,1.08514 -2.04109,1.73106 -1.26599,0.64591 -2.68701,0.64591 -2.85494,0 -4.54724,-1.89899 -1.67938,-1.91191 -1.67938,-5.219 v -0.40046 q 0,-2.0411 0.74926,-3.63005 0.74926,-1.58895 2.14444,-2.4674 1.40809,-0.87844 3.32,-0.87844 2.35114,0 3.90133,1.4081 1.56312,1.40809 1.66647,3.65588 h -2.26071 q -0.10334,-1.35643 -1.03346,-2.22195 -0.9172,-0.87845 -2.27363,-0.87845 -1.82148,0 -2.82911,1.31767 -0.99471,1.30475 -0.99471,3.78507 v 0.45214 q 0,2.41572 0.99471,3.72047 0.99471,1.30475 2.84203,1.30475 z"
           style="font-size:26.4567px;line-height:2;font-family:Roboto;-inkscape-font-specification:Roboto;text-align:center;text-anchor:middle;fill:#5a5a5a;fill-opacity:1;stroke-width:6.04724;stroke-linecap:round;stroke-linejoin:round;paint-order:markers fill stroke"
           id="path244" />
        <path
           d="m 202.59283,159.84241 h -2.38988 V 145.8648 h 2.38988 z m -2.58366,-17.68517 q 0,-0.58132 0.3488,-0.98179 0.36171,-0.40047 1.0593,-0.40047 0.69759,0 1.0593,0.40047 0.36171,0.40047 0.36171,0.98179 0,0.58132 -0.36171,0.96887 -0.36171,0.38755 -1.0593,0.38755 -0.69759,0 -1.0593,-0.38755 -0.3488,-0.38755 -0.3488,-0.96887 z"
           style="font-size:26.4567px;line-height:2;font-family:Roboto;-inkscape-font-specification:Roboto;text-align:center;text-anchor:middle;fill:#5a5a5a;fill-opacity:1;stroke-width:6.04724;stroke-linecap:round;stroke-linejoin:round;paint-order:markers fill stroke"
           id="path246" />
        <path
           d="m 205.77073,152.72442 q 0,-2.05401 0.80094,-3.69464 0.81385,-1.64062 2.24779,-2.53199 1.44685,-0.89136 3.29416,-0.89136 2.85495,0 4.61184,1.9765 1.76981,1.9765 1.76981,5.25775 v 0.16794 q 0,2.04109 -0.78802,3.6688 -0.7751,1.61479 -2.23487,2.51907 -1.44685,0.90428 -3.33292,0.90428 -2.84203,0 -4.61184,-1.9765 -1.75689,-1.9765 -1.75689,-5.23191 z m 2.40281,0.2842 q 0,2.3253 1.07222,3.73339 1.08514,1.4081 2.8937,1.4081 1.82148,0 2.8937,-1.42102 1.07222,-1.43393 1.07222,-4.00467 0,-2.29946 -1.09805,-3.72048 -1.08514,-1.43393 -2.89371,-1.43393 -1.7698,0 -2.85494,1.4081 -1.08514,1.40809 -1.08514,4.03051 z m 5.02522,-13.00874 h 2.8937 l -3.4621,3.79799 h -1.92483 z"
           style="font-size:26.4567px;line-height:2;font-family:Roboto;-inkscape-font-specification:Roboto;text-align:center;text-anchor:middle;fill:#5a5a5a;fill-opacity:1;stroke-width:6.04724;stroke-linecap:round;stroke-linejoin:round;paint-order:markers fill stroke"
           id="path247" />
        <path
           d="m 223.75303,145.8648 0.0775,1.75689 q 1.60187,-2.01526 4.18553,-2.01526 4.43098,0 4.46974,4.99939 v 9.23659 h -2.38989 v -9.24951 q -0.0129,-1.51145 -0.69759,-2.23487 -0.67175,-0.72343 -2.10568,-0.72343 -1.16265,0 -2.0411,0.62008 -0.87844,0.62008 -1.36934,1.62771 v 9.96002 h -2.38989 V 145.8648 Z"
           style="font-size:26.4567px;line-height:2;font-family:Roboto;-inkscape-font-specification:Roboto;text-align:center;text-anchor:middle;fill:#5a5a5a;fill-opacity:1;stroke-width:6.04724;stroke-linecap:round;stroke-linejoin:round;paint-order:markers fill stroke"
           id="path248" />
        <path
           d="m 254.48569,153.00862 q 0,3.19082 -1.45977,5.14149 -1.45977,1.95066 -3.95301,1.95066 -2.5449,0 -4.00467,-1.61479 v 6.73044 h -2.38989 V 145.8648 h 2.1832 l 0.11626,1.55019 q 1.45977,-1.80856 4.05635,-1.80856 2.51907,0 3.97884,1.89899 1.47269,1.89899 1.47269,5.28359 z m -2.38989,-0.27128 q 0,-2.36405 -1.00763,-3.7334 -1.00763,-1.36934 -2.76452,-1.36934 -2.17027,0 -3.25541,1.92483 v 6.67877 q 1.07222,1.91191 3.28125,1.91191 1.71813,0 2.72576,-1.35642 1.02055,-1.36934 1.02055,-4.05635 z"
           style="font-size:26.4567px;line-height:2;font-family:Roboto;-inkscape-font-specification:Roboto;text-align:center;text-anchor:middle;fill:#5a5a5a;fill-opacity:1;stroke-width:6.04724;stroke-linecap:round;stroke-linejoin:round;paint-order:markers fill stroke"
           id="path250" />
        <path
           d="m 266.138,159.84241 q -0.2067,-0.41339 -0.33588,-1.47269 -1.66646,1.73105 -3.97884,1.73105 -2.06693,0 -3.39751,-1.16264 -1.31767,-1.17557 -1.31767,-2.97122 0,-2.18319 1.65354,-3.38459 1.66646,-1.21432 4.67643,-1.21432 h 2.3253 v -1.09806 q 0,-1.25308 -0.74927,-1.98942 -0.74926,-0.74926 -2.20903,-0.74926 -1.27891,0 -2.14444,0.64591 -0.86552,0.64592 -0.86552,1.56312 h -2.40281 q 0,-1.04638 0.73635,-2.01526 0.74926,-0.98179 2.01525,-1.5502 1.27891,-0.5684 2.80328,-0.5684 2.41572,0 3.78506,1.21432 1.36934,1.2014 1.42101,3.32001 v 6.43331 q 0,1.92483 0.4909,3.06164 v 0.2067 z m -3.96592,-1.82148 q 1.12389,0 2.13152,-0.58133 1.00763,-0.58132 1.45977,-1.51144 v -2.86787 h -1.87316 q -4.39222,0 -4.39222,2.57075 0,1.12389 0.74926,1.75689 0.74926,0.633 1.92483,0.633 z"
           style="font-size:26.4567px;line-height:2;font-family:Roboto;-inkscape-font-specification:Roboto;text-align:center;text-anchor:middle;fill:#5a5a5a;fill-opacity:1;stroke-width:6.04724;stroke-linecap:round;stroke-linejoin:round;paint-order:markers fill stroke"
           id="path251" />
        <path
           d="m 278.68168,148.00924 q -0.54257,-0.0904 -1.17556,-0.0904 -2.35114,0 -3.19083,2.00233 v 9.92127 h -2.38988 V 145.8648 h 2.32529 l 0.0388,1.61478 q 1.17556,-1.87315 3.33292,-1.87315 0.69759,0 1.0593,0.18086 z"
           style="font-size:26.4567px;line-height:2;font-family:Roboto;-inkscape-font-specification:Roboto;text-align:center;text-anchor:middle;fill:#5a5a5a;fill-opacity:1;stroke-width:6.04724;stroke-linecap:round;stroke-linejoin:round;paint-order:markers fill stroke"
           id="path252" />
        <path
           d="m 288.97757,159.84241 q -0.2067,-0.41339 -0.33588,-1.47269 -1.66646,1.73105 -3.97884,1.73105 -2.06693,0 -3.39751,-1.16264 -1.31767,-1.17557 -1.31767,-2.97122 0,-2.18319 1.65354,-3.38459 1.66646,-1.21432 4.67643,-1.21432 h 2.3253 v -1.09806 q 0,-1.25308 -0.74927,-1.98942 -0.74926,-0.74926 -2.20903,-0.74926 -1.27891,0 -2.14444,0.64591 -0.86552,0.64592 -0.86552,1.56312 h -2.40281 q 0,-1.04638 0.73634,-2.01526 0.74927,-0.98179 2.01526,-1.5502 1.27891,-0.5684 2.80327,-0.5684 2.41573,0 3.78507,1.21432 1.36934,1.2014 1.42101,3.32001 v 6.43331 q 0,1.92483 0.4909,3.06164 v 0.2067 z m -3.96592,-1.82148 q 1.12389,0 2.13152,-0.58133 1.00763,-0.58132 1.45977,-1.51144 v -2.86787 h -1.87316 q -4.39222,0 -4.39222,2.57075 0,1.12389 0.74926,1.75689 0.74926,0.633 1.92483,0.633 z"
           style="font-size:26.4567px;line-height:2;font-family:Roboto;-inkscape-font-specification:Roboto;text-align:center;text-anchor:middle;fill:#5a5a5a;fill-opacity:1;stroke-width:6.04724;stroke-linecap:round;stroke-linejoin:round;paint-order:markers fill stroke"
           id="path254" />
        <path
           d="m 309.95691,159.84241 q -0.2067,-0.41339 -0.33588,-1.47269 -1.66646,1.73105 -3.97884,1.73105 -2.06693,0 -3.39751,-1.16264 -1.31767,-1.17557 -1.31767,-2.97122 0,-2.18319 1.65354,-3.38459 1.66646,-1.21432 4.67643,-1.21432 h 2.3253 v -1.09806 q 0,-1.25308 -0.74927,-1.98942 -0.74926,-0.74926 -2.20903,-0.74926 -1.27891,0 -2.14444,0.64591 -0.86552,0.64592 -0.86552,1.56312 h -2.40281 q 0,-1.04638 0.73634,-2.01526 0.74927,-0.98179 2.01526,-1.5502 1.27891,-0.5684 2.80327,-0.5684 2.41573,0 3.78507,1.21432 1.36934,1.2014 1.42101,3.32001 v 6.43331 q 0,1.92483 0.4909,3.06164 v 0.2067 z m -3.96592,-1.82148 q 1.12389,0 2.13152,-0.58133 1.00762,-0.58132 1.45977,-1.51144 v -2.86787 h -1.87316 q -4.39222,0 -4.39222,2.57075 0,1.12389 0.74926,1.75689 0.74926,0.633 1.92483,0.633 z"
           style="font-size:26.4567px;line-height:2;font-family:Roboto;-inkscape-font-specification:Roboto;text-align:center;text-anchor:middle;fill:#5a5a5a;fill-opacity:1;stroke-width:6.04724;stroke-linecap:round;stroke-linejoin:round;paint-order:markers fill stroke"
           id="path255" />
        <path
           d="m 325.17468,157.81423 h 8.91363 v 2.02818 h -11.40686 v -18.80906 h 2.49323 z"
           style="font-size:26.4567px;line-height:2;font-family:Roboto;-inkscape-font-specification:Roboto;text-align:center;text-anchor:middle;fill:#5a5a5a;fill-opacity:1;stroke-width:6.04724;stroke-linecap:round;stroke-linejoin:round;paint-order:markers fill stroke"
           id="path256" />
        <path
           d="m 339.16521,159.84241 h -2.38989 V 145.8648 h 2.38989 z m -2.58367,-17.68517 q 0,-0.58132 0.3488,-0.98179 0.36171,-0.40047 1.0593,-0.40047 0.69759,0 1.0593,0.40047 0.36171,0.40047 0.36171,0.98179 0,0.58132 -0.36171,0.96887 -0.36171,0.38755 -1.0593,0.38755 -0.69759,0 -1.0593,-0.38755 -0.3488,-0.38755 -0.3488,-0.96887 z"
           style="font-size:26.4567px;line-height:2;font-family:Roboto;-inkscape-font-specification:Roboto;text-align:center;text-anchor:middle;fill:#5a5a5a;fill-opacity:1;stroke-width:6.04724;stroke-linecap:round;stroke-linejoin:round;paint-order:markers fill stroke"
           id="path258" />
        <path
           d="m 354.80928,153.00862 q 0,3.20374 -1.47268,5.15441 -1.47269,1.93774 -3.95301,1.93774 -2.64825,0 -4.0951,-1.87315 l -0.11627,1.61479 h -2.19611 v -19.84253 h 2.38989 v 7.40219 q 1.44685,-1.79564 3.99176,-1.79564 2.5449,0 3.99175,1.92483 1.45977,1.92483 1.45977,5.27067 z m -2.38988,-0.27128 q 0,-2.44156 -0.94304,-3.77215 -0.94304,-1.33059 -2.71285,-1.33059 -2.36405,0 -3.39751,2.19612 v 6.04577 q 1.09806,2.19611 3.42335,2.19611 1.71814,0 2.67409,-1.33059 0.95596,-1.33058 0.95596,-4.00467 z"
           style="font-size:26.4567px;line-height:2;font-family:Roboto;-inkscape-font-specification:Roboto;text-align:center;text-anchor:middle;fill:#5a5a5a;fill-opacity:1;stroke-width:6.04724;stroke-linecap:round;stroke-linejoin:round;paint-order:markers fill stroke"
           id="path259" />
        <path
           d="m 363.60665,160.10077 q -2.84203,0 -4.62476,-1.86023 -1.78272,-1.87316 -1.78272,-4.99939 v -0.43922 q 0,-2.07985 0.78801,-3.70756 0.80094,-1.64062 2.22195,-2.55782 1.43393,-0.93012 3.1004,-0.93012 2.72576,0 4.2372,1.79564 1.51144,1.79565 1.51144,5.14149 v 0.99471 h -9.46912 q 0.0517,2.06693 1.20141,3.34584 1.16264,1.266 2.94537,1.266 1.266,0 2.14444,-0.51673 0.87845,-0.51674 1.53728,-1.36934 l 1.45977,1.13681 q -1.75689,2.69992 -5.27067,2.69992 z m -0.29712,-12.53076 q -1.44685,0 -2.42865,1.0593 -0.98179,1.04639 -1.21432,2.94538 h 7.00173 v -0.18086 q -0.10335,-1.82148 -0.98179,-2.81619 -0.87845,-1.00763 -2.37697,-1.00763 z"
           style="font-size:26.4567px;line-height:2;font-family:Roboto;-inkscape-font-specification:Roboto;text-align:center;text-anchor:middle;fill:#5a5a5a;fill-opacity:1;stroke-width:6.04724;stroke-linecap:round;stroke-linejoin:round;paint-order:markers fill stroke"
           id="path260" />
        <path
           d="m 378.56605,148.00924 q -0.54257,-0.0904 -1.17556,-0.0904 -2.35114,0 -3.19083,2.00233 v 9.92127 h -2.38988 V 145.8648 h 2.32529 l 0.0388,1.61478 q 1.17556,-1.87315 3.33292,-1.87315 0.69759,0 1.0593,0.18086 z"
           style="font-size:26.4567px;line-height:2;font-family:Roboto;-inkscape-font-specification:Roboto;text-align:center;text-anchor:middle;fill:#5a5a5a;fill-opacity:1;stroke-width:6.04724;stroke-linecap:round;stroke-linejoin:round;paint-order:markers fill stroke"
           id="path262" />
        <path
           d="m 379.90957,152.73734 q 0,-3.21666 1.52436,-5.16733 1.52436,-1.96358 3.99176,-1.96358 2.45448,0 3.88841,1.67938 v -7.28593 h 2.38989 v 19.84253 h -2.19611 l -0.11627,-1.49853 q -1.43393,1.75689 -3.99176,1.75689 -2.42864,0 -3.96592,-1.98942 -1.52436,-1.98942 -1.52436,-5.19316 z m 2.38989,0.27128 q 0,2.37697 0.98179,3.72047 0.98179,1.34351 2.71285,1.34351 2.27362,0 3.32,-2.04109 v -6.4204 q -1.07222,-1.97651 -3.29417,-1.97651 -1.75689,0 -2.73868,1.35643 -0.98179,1.35642 -0.98179,4.01759 z"
           style="font-size:26.4567px;line-height:2;font-family:Roboto;-inkscape-font-specification:Roboto;text-align:center;text-anchor:middle;fill:#5a5a5a;fill-opacity:1;stroke-width:6.04724;stroke-linecap:round;stroke-linejoin:round;paint-order:markers fill stroke"
           id="path263" />
        <path
           d="m 404.05389,159.84241 q -0.20669,-0.41339 -0.33587,-1.47269 -1.66647,1.73105 -3.97884,1.73105 -2.06693,0 -3.39752,-1.16264 -1.31767,-1.17557 -1.31767,-2.97122 0,-2.18319 1.65355,-3.38459 1.66646,-1.21432 4.67642,-1.21432 h 2.3253 v -1.09806 q 0,-1.25308 -0.74926,-1.98942 -0.74926,-0.74926 -2.20903,-0.74926 -1.27892,0 -2.14444,0.64591 -0.86553,0.64592 -0.86553,1.56312 h -2.4028 q 0,-1.04638 0.73634,-2.01526 0.74926,-0.98179 2.01526,-1.5502 1.27891,-0.5684 2.80327,-0.5684 2.41572,0 3.78506,1.21432 1.36934,1.2014 1.42102,3.32001 v 6.43331 q 0,1.92483 0.49089,3.06164 v 0.2067 z m -3.96592,-1.82148 q 1.12389,0 2.13152,-0.58133 1.00763,-0.58132 1.45977,-1.51144 v -2.86787 h -1.87315 q -4.39223,0 -4.39223,2.57075 0,1.12389 0.74926,1.75689 0.74926,0.633 1.92483,0.633 z"
           style="font-size:26.4567px;line-height:2;font-family:Roboto;-inkscape-font-specification:Roboto;text-align:center;text-anchor:middle;fill:#5a5a5a;fill-opacity:1;stroke-width:6.04724;stroke-linecap:round;stroke-linejoin:round;paint-order:markers fill stroke"
           id="path264" />
        <path
           d="m 409.25995,152.73734 q 0,-3.21666 1.52436,-5.16733 1.52436,-1.96358 3.99175,-1.96358 2.45448,0 3.88842,1.67938 v -7.28593 h 2.38988 v 19.84253 h -2.19611 l -0.11626,-1.49853 q -1.43394,1.75689 -3.99176,1.75689 -2.42865,0 -3.96592,-1.98942 -1.52436,-1.98942 -1.52436,-5.19316 z m 2.38988,0.27128 q 0,2.37697 0.98179,3.72047 0.9818,1.34351 2.71285,1.34351 2.27362,0 3.32001,-2.04109 v -6.4204 q -1.07222,-1.97651 -3.29417,-1.97651 -1.75689,0 -2.73869,1.35643 -0.98179,1.35642 -0.98179,4.01759 z"
           style="font-size:26.4567px;line-height:2;font-family:Roboto;-inkscape-font-specification:Roboto;text-align:center;text-anchor:middle;fill:#5a5a5a;fill-opacity:1;stroke-width:6.04724;stroke-linecap:round;stroke-linejoin:round;paint-order:markers fill stroke"
           id="path265" />
        <path
           d="m 430.57518,160.10077 q -2.84202,0 -4.62475,-1.86023 -1.78273,-1.87316 -1.78273,-4.99939 v -0.43922 q 0,-2.07985 0.78802,-3.70756 0.80093,-1.64062 2.22195,-2.55782 1.43393,-0.93012 3.10039,-0.93012 2.72577,0 4.23721,1.79564 1.51144,1.79565 1.51144,5.14149 v 0.99471 h -9.46912 q 0.0517,2.06693 1.2014,3.34584 1.16265,1.266 2.94538,1.266 1.26599,0 2.14444,-0.51673 0.87844,-0.51674 1.53728,-1.36934 l 1.45976,1.13681 q -1.75689,2.69992 -5.27067,2.69992 z m -0.29712,-12.53076 q -1.44685,0 -2.42864,1.0593 -0.98179,1.04639 -1.21432,2.94538 h 7.00172 v -0.18086 q -0.10334,-1.82148 -0.98179,-2.81619 -0.87844,-1.00763 -2.37697,-1.00763 z"
           style="font-size:26.4567px;line-height:2;font-family:Roboto;-inkscape-font-specification:Roboto;text-align:center;text-anchor:middle;fill:#5a5a5a;fill-opacity:1;stroke-width:6.04724;stroke-linecap:round;stroke-linejoin:round;paint-order:markers fill stroke"
           id="path266" />
      </g>
      <path
         id="path267"
         style="fill:#f9aa24;fill-opacity:1;fill-rule:nonzero;stroke:none;stroke-width:1.33333"
         d="m 318.71033,77.927534 c 0.676,-0.209333 1.39867,-0.324 2.10667,-0.36 3.43066,-0.168 5.4,2.872 3.888,5.988 -0.708,1.46 -1.93334,2.388 -3.36667,3.048 -3.43333,1.581333 -7,1.544 -10.76933,0.834666 1.39866,-4.409333 3.484,-8.067999 8.14133,-9.510666 m 144.108,-30.462666 c 1.25733,-1.026667 2.73466,-1.597333 4.37466,-1.64 2.08,-0.052 3.42534,1.328 3.32667,3.408 -0.11333,2.369333 -1.25467,4.225333 -2.96533,5.782667 -2.45867,2.241333 -8.17467,4.906666 -11.80534,5.458666 1.41334,-4.914666 2.95734,-9.654666 7.06934,-13.009333 M 500.99299,90.4942 c -2.508,-0.778666 -5.016,-1.550666 -7.568,-2.34 -0.39066,1.765334 -0.71333,3.426667 -1.132,5.062667 -0.72666,2.826667 -1.696,5.561333 -3.45466,7.940003 -0.96134,1.3 -2.14,2.34133 -3.736,2.804 -2.67867,0.77866 -4.43467,-0.21867 -4.81734,-2.98267 -0.23733,-1.7 -0.14666,-3.46 -0.0733,-5.188 0.14267,-3.388 0.68267,-6.788 0.50667,-10.156 -0.36534,-6.969333 -5.70134,-11.869333 -12.67067,-12.186666 -5.632,-0.257333 -9.968,2.174667 -13.592,6.228 -0.25333,0.281333 -0.504,0.565333 -0.756,0.848 -0.11333,-2.802667 0.0547,-5.477333 0.10267,-8.153333 0.0187,-1.026667 0.432,-1.4 1.37733,-1.657333 5.42133,-1.48 10.824,-3.028 15.86133,-5.605334 7.24534,-3.708 11.54134,-9.286666 11.052,-17.753333 -0.28666,-4.966666 -2.64266,-8.773333 -7.15733,-11.017333 -1.35867,-0.676 -2.91333,-0.953333 -4.37867,-1.413333 h -3.852 c -0.21466,0.06533 -0.42533,0.166667 -0.644,0.192 -5.656,0.645333 -10.06933,3.428 -13.47466,7.894667 -3.50134,4.593333 -5.40934,9.901333 -6.73334,15.445332 -2.2,9.209334 -2.73066,18.589333 -2.56666,28.008 0.0853,4.917333 -1.80534,8.905333 -5.14667,12.249333 -4.37333,4.376003 -9.86667,5.797333 -15.888,5.378663 -3.79733,-0.264 -6.976,-1.864 -9.28,-4.966663 -2.284,-3.076 -2.66133,-6.596 -2.144,-10.254667 0.428,-3.017333 1.50667,-5.767999 3.78667,-7.911999 4.156,-3.912 10.11333,-2.892 12.668,2.157333 0.112,0.222667 0.24133,0.437333 0.412,0.744 2.988,-2.098667 5.90266,-4.148 8.83333,-6.206667 -1.64133,-3.693333 -3.98533,-6.617333 -7.58133,-8.246666 -6.44667,-2.921333 -12.73334,-2.137333 -18.55067,1.621333 -7.02933,4.541333 -10.31467,11.410667 -11.18933,19.538666 -0.37067,3.444 -1.436,6.62 -3.20667,9.56133 -0.51733,0.86 -1.25333,1.59734 -1.93333,2.34934 -0.29867,0.32933 -0.69067,0.588 -1.076,0.82266 -3.33067,2.03067 -6.43734,0.728 -6.89467,-3.12266 -0.33067,-2.792003 -0.156,-5.645336 -0.188,-8.47067 -0.0187,-1.649333 -0.003,-3.298666 -0.003,-5.009333 h -11.39466 c 0.028,0.48 0.0667,0.885333 0.0733,1.292 0.0827,4.646667 -0.772,9.036 -3.79733,12.734663 -2.16,2.63867 -4.96,3.98134 -8.40533,3.28934 -3.296,-0.65867 -5.03067,-3.048 -5.89334,-6.085337 C 356.078,96.4942 355.858,94.9622 355.842,93.471534 c -0.06,-5.450667 1.924,-9.965333 6.552,-13.058667 4.01467,-2.684 8.79333,-2.373333 11.988,0.710667 0.79867,0.770667 1.41333,1.728 2.168,2.669333 2.876,-2.02 5.79467,-4.070666 8.78667,-6.172 -0.46667,-0.793333 -0.804,-1.518666 -1.27467,-2.142666 -4.68133,-6.197333 -11.06933,-8.448 -18.55733,-7.553333 -8.44,1.008 -14.33734,5.787999 -18.072,13.273333 -1,2.005333 -1.78134,4.182666 -2.26667,6.367999 -1.144,5.164 -3.92933,9.261334 -8.06,12.321333 -6.37867,4.726667 -13.472,5.615997 -20.904,2.810667 -2.90267,-1.096 -4.73733,-3.366667 -5.58933,-6.146666 2.60533,0 5.20133,0.114666 7.78266,-0.024 5.648,-0.3 10.62134,-2.232 14.408,-6.594667 6.312,-7.272 3.69734,-17.958666 -5.25066,-21.162666 -5.70934,-2.044 -11.27734,-1.237333 -16.424,1.86 -6.12534,3.686666 -9.368,9.436 -11.01467,16.213333 -0.656,2.696 -0.71333,5.512 -1.968,8.094666 -2.57067,5.28667 -6.30133,8.88533 -12.48667,9.252 -4.49066,0.26667 -7.964,-2.308 -8.87333,-6.708 -0.23467,-1.136 -0.39333,-2.337333 -0.29067,-3.482666 0.46134,-5.145334 1.06534,-10.276 1.52934,-15.421333 0.10533,-1.162667 0.56666,-1.381334 1.62,-1.350667 2.98133,0.08533 5.96666,0.04667 8.95066,0.08667 1.04534,0.01333 2.08934,0.113333 3.19467,0.178666 0.352,-3.144 0.69467,-6.206666 1.072,-9.590666 h -13.088 c 1.03467,-4.889333 1.996,-9.437333 2.97333,-14.058666 -3.68933,-0.782667 -7.244,-1.537334 -10.89866,-2.313334 -1.19734,5.296 -2.35867,10.426667 -3.54267,15.656 -1.716,-0.192 -3.384,-0.377333 -5.09067,-0.566667 -0.56533,3.224 -1.11066,6.329333 -1.67733,9.56 1.81467,0.2 3.51333,0.386667 5.25733,0.577333 -0.0413,0.32 -0.0613,0.541334 -0.10133,0.76 -1.28267,7.130667 -1.63733,14.329333 -1.42933,21.550666 0.18266,6.372004 3.196,11.061334 8.92133,13.901334 8.49067,4.212 20.68133,2.08533 27.79467,-4.79333 0.47866,-0.46534 0.916,-0.97467 1.368,-1.46 4.49866,4.292 7.12666,5.96 11.152,7.08133 9.308,2.59467 18.09866,1.25333 26.36,-3.62667 2.08933,-1.23466 3.988,-2.79333 6.02,-4.23333 3.20266,5.46133 7.95333,8.69733 14.412,9.07867 6.30133,0.37333 11.624,-1.99867 16.19466,-6.22934 4.664,7.924 19.14933,9.41734 26.54533,-1.49866 2.16934,2.43066 4.70267,4.37466 7.732,5.56 9.136,3.57333 18.10934,2.81466 26.90267,-1.21467 1.51867,-0.696 2.924,-1.64133 4.48667,-2.53333 -0.10134,1.73866 -0.19734,3.38 -0.296,5.056 h 11.088 c 0,-3.82934 -0.003,-7.56667 10e-4,-11.30534 0.004,-3.64133 0.348,-7.242663 1.45333,-10.727997 0.88134,-2.781333 2.14134,-5.348 4.77867,-6.916 3.82267,-2.271999 7.68133,-0.771999 8.49733,3.568 0.496,2.630667 0.31734,5.392 0.40134,8.097334 0.0707,2.258666 -0.0987,4.541333 0.15333,6.777333 0.70267,6.208 4.592,10.408 10.36933,11.212 7.344,1.02133 13.28534,-1.468 17.692,-7.464 2.95734,-4.02667 4.596,-8.626667 5.692,-13.449333 0.324,-1.428 0.52,-2.532 0.52,-2.532 0,0 -1.31733,-0.550667 -2.512,-0.921334"
         inkscape:label="teach" />
      <g
         id="g284"
         style="fill:#2c2525;fill-opacity:1"
         inkscape:label="ROBO">
        <path
           id="path268"
           style="fill:#2c2525;fill-opacity:1;fill-rule:nonzero;stroke:none;stroke-width:1.33333"
           d="m 119.7462,100.72846 c -6.48133,-0.0693 -11.80533,-5.499998 -11.732,-11.965331 0.076,-6.652 5.44667,-11.918666 12.08,-11.848 6.48,0.06933 11.80534,5.5 11.732,11.965333 -0.0773,6.652 -5.44666,11.918668 -12.08,11.847998 m 20.38,-27.699997 c -5.552,-3.197334 -11.09866,-6.404 -16.64266,-9.616 -1.96,-1.137333 -5.168,-1.137333 -7.128,-0.0013 -5.54534,3.213333 -11.09467,6.419999 -16.64667,9.619999 -1.961333,1.130667 -3.562666,3.905334 -3.56,6.169334 0.0093,6.415999 0.0093,12.831999 0.0013,19.247999 -0.0027,2.261335 1.597333,5.034665 3.557333,6.163995 5.554667,3.20001 11.105337,6.40667 16.653337,9.61867 1.95733,1.13467 5.16133,1.13467 7.11866,0 5.54533,-3.212 11.09467,-6.41866 16.64667,-9.616 1.968,-1.13333 3.564,-3.91466 3.55866,-6.185332 -0.007,-3.185333 0,-6.371999 0,-9.559999 0,-3.22 -0.005,-6.44 0.001,-9.661333 0.004,-2.268 -1.59466,-5.048 -3.56,-6.18" />
        <path
           id="path269"
           style="fill:#2c2525;fill-opacity:1;fill-rule:nonzero;stroke:none;stroke-width:1.33333"
           d="m 119.62967,81.326062 c -4.14133,0 -7.5,3.357333 -7.5,7.5 0,4.141333 3.35867,7.5 7.5,7.5 4.14133,0 7.5,-3.358667 7.5,-7.5 0,-4.142667 -3.35867,-7.5 -7.5,-7.5" />
        <path
           id="path270"
           style="fill:#2c2525;fill-opacity:1;fill-rule:nonzero;stroke:none;stroke-width:1.33333"
           d="M 69.131004,89.559795 H 59.809671 V 74.394462 h 9.321333 c 3.994667,0 6.14,3.033333 6.14,7.472 0,4.438666 -2.145333,7.693333 -6.14,7.693333 m 10.653333,9.617333 c 5.694667,-2.885333 8.58,-8.581333 8.58,-16.791999 0,-12.354667 -6.584,-19.825333 -19.233333,-19.825333 H 46.495005 v 52.522664 h 13.314666 v -13.68667 h 5.918666 l 7.397334,13.68667 h 17.310666 v -11.83733 h -8.36 z" />
        <path
           id="path271"
           style="fill:#2c2525;fill-opacity:1;fill-rule:nonzero;stroke:none;stroke-width:1.33333"
           d="M 174.62447,103.39379 H 163.8978 v -8.655995 h 10.208 c 2.516,0 4.43867,1.702667 4.43867,4.661333 0,2.218672 -1.256,3.994672 -3.92,3.994672 M 163.8978,73.951129 h 8.43334 c 2.96,0 4.21733,2.441333 4.21733,4.661333 0,2.070667 -1.48,4.216 -4.21733,4.216 h -8.43334 z m 21.82267,13.833333 c 2.44133,-1.774667 4.21733,-5.621333 4.21733,-9.172 0,-9.839999 -6.732,-16.053333 -16.57066,-16.053333 h -22.784 V 115.0818 h 24.92933 c 10.948,0 16.644,-6.95334 16.644,-16.126672 0,-4.734666 -2.21867,-8.877333 -6.436,-11.170666" />
        <path
           id="path272"
           style="fill:#2c2525;fill-opacity:1;fill-rule:nonzero;stroke:none;stroke-width:1.33333"
           d="m 237.3914,90.998595 -9.256,9.255995 c -1.20133,1.20134 -3.14933,1.20134 -4.352,0 l -9.25467,-9.255995 c -1.20266,-1.201333 -1.20266,-3.150667 0,-4.352 l 9.25467,-9.256 c 1.19733,-1.197333 3.156,-1.197333 4.352,0 l 9.256,9.256 c 1.20133,1.201333 1.20133,3.150667 0,4.352 m 13.06667,-6.841333 -19.83467,-19.836 c -2.56533,-2.565333 -6.76133,-2.565333 -9.32667,0 l -19.836,19.836 c -2.57466,2.576 -2.57466,6.750666 0,9.326666 l 19.836,19.836002 c 2.57467,2.57466 6.75067,2.57466 9.32667,0 l 19.83467,-19.836002 c 2.576,-2.576 2.576,-6.750666 0,-9.326666" />
        <path
           id="path273"
           style="fill:#2c2525;fill-opacity:1;fill-rule:nonzero;stroke:none;stroke-width:1.33333"
           d="m 199.53206,79.846862 3.33067,-3.330667 -3.204,-3.204 c -0.916,-0.915999 -2.41467,-0.915999 -3.33067,0 -0.916,0.916 -0.916,2.414667 0,3.330667 z" />
        <path
           id="path274"
           style="fill:#2c2525;fill-opacity:1;fill-rule:nonzero;stroke:none;stroke-width:1.33333"
           d="m 206.5938,72.784996 3.33067,-3.330667 -3.20534,-3.204 c -0.91466,-0.915999 -2.41466,-0.915999 -3.33066,0 -0.91467,0.916 -0.91467,2.414667 0,3.330667 z" />
        <path
           id="path275"
           style="fill:#2c2525;fill-opacity:1;fill-rule:nonzero;stroke:none;stroke-width:1.33333"
           d="m 213.655,65.723263 3.33067,-3.330667 -3.204,-3.204 c -0.916,-0.915999 -2.41467,-0.915999 -3.33067,0 -0.916,0.916 -0.916,2.414667 0,3.330667 z" />
        <path
           id="path276"
           style="fill:#2c2525;fill-opacity:1;fill-rule:nonzero;stroke:none;stroke-width:1.33333"
           d="m 252.38753,97.794195 -3.33067,3.330665 3.204,3.204 c 0.916,0.916 2.41467,0.916 3.33067,0 0.916,-0.916 0.916,-2.41466 0,-3.33067 z" />
        <path
           id="path277"
           style="fill:#2c2525;fill-opacity:1;fill-rule:nonzero;stroke:none;stroke-width:1.33333"
           d="m 245.32566,104.85539 -3.33067,3.33067 3.204,3.20533 c 0.916,0.916 2.41467,0.916 3.33067,0 0.916,-0.916 0.916,-2.41466 0,-3.33066 z" />
        <path
           id="path278"
           style="fill:#2c2525;fill-opacity:1;fill-rule:nonzero;stroke:none;stroke-width:1.33333"
           d="m 238.2638,111.91726 -3.33067,3.33067 3.204,3.204 c 0.916,0.916 2.416,0.916 3.33067,0 0.916,-0.91467 0.916,-2.41467 0,-3.33067 z" />
        <path
           id="path279"
           style="fill:#2c2525;fill-opacity:1;fill-rule:nonzero;stroke:none;stroke-width:1.33333"
           d="m 210.4506,115.12233 c -0.916,0.916 -0.916,2.41466 0,3.33067 0.916,0.916 2.41467,0.916 3.33067,0 l 3.204,-3.20534 -3.33067,-3.33066 z" />
        <path
           id="path280"
           style="fill:#2c2525;fill-opacity:1;fill-rule:nonzero;stroke:none;stroke-width:1.33333"
           d="m 206.5938,104.85539 -3.20533,3.20534 c -0.91467,0.916 -0.91467,2.41466 0,3.33066 0.916,0.916 2.41466,0.916 3.33066,0 l 3.20534,-3.20533 z" />
        <path
           id="path281"
           style="fill:#2c2525;fill-opacity:1;fill-rule:nonzero;stroke:none;stroke-width:1.33333"
           d="m 199.53206,97.794195 -3.204,3.203995 c -0.916,0.916 -0.916,2.41467 0,3.33067 0.91467,0.916 2.41467,0.916 3.33067,0 l 3.204,-3.204 z" />
        <path
           id="path282"
           style="fill:#2c2525;fill-opacity:1;fill-rule:nonzero;stroke:none;stroke-width:1.33333"
           d="m 241.4682,62.518729 c 0.916,-0.916 0.916,-2.414667 0,-3.330667 -0.916,-0.916 -2.41467,-0.916 -3.33067,0 l -3.204,3.204 3.33067,3.330667 z" />
        <path
           id="path283"
           style="fill:#2c2525;fill-opacity:1;fill-rule:nonzero;stroke:none;stroke-width:1.33333"
           d="m 245.32566,72.784996 3.204,-3.204 c 0.916,-0.916 0.916,-2.414667 0,-3.330667 -0.916,-0.915999 -2.41467,-0.915999 -3.33067,0 l -3.204,3.204 z" />
        <path
           id="path284"
           style="fill:#2c2525;fill-opacity:1;fill-rule:nonzero;stroke:none;stroke-width:1.33333"
           d="m 252.38753,79.846862 3.204,-3.204 c 0.916,-0.916 0.916,-2.414667 0,-3.330667 -0.916,-0.915999 -2.41467,-0.915999 -3.33067,0 l -3.204,3.204 z" />
      </g>
    </g>
  </g>
</svg>
